<svg xmlns="http://www.w3.org/2000/svg" width="920" height="260">

  <defs>
    <marker id="arrow" markerWidth="10" markerHeight="10" refX="7" refY="3" orient="auto" markerUnits="strokeWidth">
      <path d="M0,0 L0,6 L9,3 z" fill="black"/>
    </marker>
  </defs>
  <style>
    .box { fill: white; stroke: black; stroke-width: 2; rx: 10; ry: 10; }
    .smallbox { fill: white; stroke: black; stroke-width: 1.8; rx: 8; ry: 8; }
    .line { stroke: black; stroke-width: 2; fill: none; marker-end: url(#arrow); }
    .dash { stroke: black; stroke-width: 2; stroke-dasharray: 6 6; fill: none; marker-end: url(#arrow); }
    .txt { font-family: Arial, sans-serif; font-size: 16px; }
    .small { font-family: Arial, sans-serif; font-size: 13px; }
    .math { font-family: Arial, sans-serif; font-size: 15px; font-style: italic; }
    .title { font-family: Arial, sans-serif; font-size: 18px; font-weight: bold; }
  </style>

  <text x="315" y="28" class="title">Many-to-Many with delay: next-token prediction</text>
  <text x="75" y="60" class="small">example: language modeling, autoregressive forecasting</text>
  <rect x="110" y="105" width="80" height="45" class="box"/><text x="140" y="133" class="math">h₁</text>
  <rect x="260" y="105" width="80" height="45" class="box"/><text x="290" y="133" class="math">h₂</text>
  <rect x="410" y="105" width="80" height="45" class="box"/><text x="440" y="133" class="math">h₃</text>
  <rect x="560" y="105" width="80" height="45" class="box"/><text x="590" y="133" class="math">h₄</text>
  <line x1="190" y1="127" x2="260" y2="127" class="line"/>
  <line x1="340" y1="127" x2="410" y2="127" class="line"/>
  <line x1="490" y1="127" x2="560" y2="127" class="line"/>
  <text x="130" y="88" class="math">x₁</text><line x1="150" y1="88" x2="150" y2="105" class="line"/>
  <text x="280" y="88" class="math">x₂</text><line x1="300" y1="88" x2="300" y2="105" class="line"/>
  <text x="430" y="88" class="math">x₃</text><line x1="450" y1="88" x2="450" y2="105" class="line"/>
  <text x="580" y="88" class="math">x₄</text><line x1="600" y1="88" x2="600" y2="105" class="line"/>
  <path d="M150 150 C190 205, 235 205, 280 170" class="dash"/><text x="200" y="218" class="math">predict x₂</text>
  <path d="M300 150 C340 205, 385 205, 430 170" class="dash"/><text x="350" y="218" class="math">predict x₃</text>
  <path d="M450 150 C490 205, 535 205, 580 170" class="dash"/><text x="500" y="218" class="math">predict x₄</text>
  <text x="690" y="130" class="math">L = Σₜ ℓ(yₜ, xₜ₊₁)</text>
</svg>